<svg xmlns="http://www.w3.org/2000/svg" viewBox="0 0 720 170" fill="none" role="img" aria-labelledby="lhexiaTitle lhexiaDesc">
  <title id="lhexiaTitle">LhexIA ERP</title>
  <desc id="lhexiaDesc">Logo compacto premium de LhexIA ERP con isotipo hexagonal, wordmark renovado y tagline corporativo.</desc>
  <defs>
    <linearGradient id="lxOrange" x1="8" y1="6" x2="136" y2="138" gradientUnits="userSpaceOnUse">
      <stop offset="0%" stop-color="#FFB14D"/>
      <stop offset="56%" stop-color="#FF7A10"/>
      <stop offset="100%" stop-color="#EA580C"/>
    </linearGradient>
    <linearGradient id="lxWhite" x1="28" y1="32" x2="118" y2="132" gradientUnits="userSpaceOnUse">
      <stop offset="0%" stop-color="#FFFFFF"/>
      <stop offset="100%" stop-color="#E8EAEE"/>
    </linearGradient>
    <filter id="lxShadow" x="-20%" y="-20%" width="140%" height="140%">
      <feDropShadow dx="0" dy="10" stdDeviation="9" flood-color="#000000" flood-opacity="0.18"/>
    </filter>
  </defs>

  <g transform="translate(8 16)" filter="url(#lxShadow)">
    <polygon points="66,0 122,32 122,96 66,128 10,96 10,32" fill="none" stroke="url(#lxOrange)" stroke-width="7" stroke-linejoin="round"/>
    <path d="M28 30h28v58h46v24H28z" fill="url(#lxWhite)"/>
    <path d="M54 68 78 52h31L84 84H65z" fill="url(#lxOrange)"/>
    <path d="M61 72 84 88 75 101 51 84z" fill="#FF7A10"/>
    <circle cx="86" cy="44" r="6.5" fill="#F8FAFC"/>
    <path d="M60 70 82 86 100 66l7 5-21 26-30-22z" fill="#FF8A1F"/>
  </g>

  <g transform="translate(162 24)">
    <text x="0" y="68" font-family="Segoe UI, Arial, sans-serif" font-size="76" font-weight="800" letter-spacing="-0.06em">
      <tspan fill="#F8FAFC">Lhex</tspan><tspan fill="#FF7A10">IA</tspan>
    </text>
    <text x="382" y="40" fill="#F8FAFC" font-family="Segoe UI, Arial, sans-serif" font-size="30" font-weight="800" letter-spacing="0.02em">
      ERP
    </text>
    <text x="0" y="118" fill="#F8FAFC" font-family="Segoe UI, Arial, sans-serif" font-size="28" font-weight="800" letter-spacing="-0.03em">
      HAZ RENTABLE TU DECISI&#211;N
    </text>
  </g>
</svg>
